Coordinates
version=1
nRows=33
nColumns=34
inDegrees=no

Units are S.I. units (second, meters, Newtons, ...)
If the header above contains a line with 'inDegrees', this indicates whether rotational values are in degrees (yes) or radians (no).

endheader
time	pelvis_tilt	pelvis_list	pelvis_rotation	pelvis_tx	pelvis_ty	pelvis_tz	hip_flexion_r	hip_adduction_r	hip_rotation_r	knee_angle_r	ankle_angle_r	subtalar_angle_r	mtp_angle_r	hip_flexion_l	hip_adduction_l	hip_rotation_l	knee_angle_l	ankle_angle_l	subtalar_angle_l	mtp_angle_l	lumbar_extension	lumbar_bending	lumbar_rotation	arm_flex_r	arm_add_r	arm_rot_r	elbow_flex_r	pro_sup_r	arm_flex_l	arm_add_l	arm_rot_l	elbow_flex_l	pro_sup_l
160.02	0.157151	-0.116184	1.94983	-0.0368091	0.76443	-0.0817083	0.524426	-0.678967	-0.698132	0.555988	0.226953	-0.189182	0	0.751235	-0.513943	-0.0969854	1.32563	0.633637	0.267413	0	-0.0224176	0.132626	0.000938355	0.599917	-0.776867	-0.0148391	0.37281	2.09	1.71602	0.078245	0.999726	1.26759	2.09
160.04	0.157234	-0.114926	1.96295	-0.0380311	0.764156	-0.081397	0.512933	-0.682076	-0.698132	0.548898	0.241432	-0.176262	0	0.758715	-0.502553	-0.0891623	1.32993	0.63321	0.268884	0	-0.0214372	0.130643	0.00284806	0.588287	-0.768554	-0.022349	0.37023	2.09	1.71374	0.0713038	0.99317	1.27643	2.09
160.06	0.156565	-0.112504	1.9757	-0.0392762	0.764026	-0.0811448	0.499866	-0.685066	-0.698132	0.541223	0.255641	-0.163403	0	0.764009	-0.491342	-0.082217	1.33384	0.632879	0.270866	0	-0.0218911	0.128409	0.00551899	0.576434	-0.760387	-0.0305791	0.367654	2.09	1.71143	0.0651732	0.986446	1.28439	2.09
160.08	0.154733	-0.108296	1.98786	-0.0405711	0.764109	-0.0809971	0.48443	-0.687881	-0.698132	0.532709	0.269432	-0.150171	0	0.765905	-0.480441	-0.0766497	1.3371	0.632697	0.273708	0	-0.0245741	0.125762	0.00932229	0.564466	-0.752337	-0.0395905	0.36509	2.09	1.70899	0.0600951	0.979426	1.29119	2.09
160.1	0.151914	-0.102503	1.99946	-0.0418896	0.76438	-0.0809343	0.46697	-0.690478	-0.698132	0.523426	0.282759	-0.136212	0	0.76473	-0.469902	-0.072402	1.33971	0.632601	0.277492	0	-0.0292088	0.122737	0.0142519	0.552609	-0.744339	-0.0489465	0.362516	2.09	1.70634	0.0559746	0.972074	1.2969	2.09
160.12	0.149207	-0.0963109	2.01095	-0.043186	0.764677	-0.0808595	0.44914	-0.692647	-0.698132	0.513708	0.295576	-0.121918	0	0.762947	-0.459709	-0.0684865	1.342	0.632345	0.281971	0	-0.0341396	0.11977	0.0198883	0.541109	-0.736387	-0.0579581	0.359895	2.09	1.70347	0.0525741	0.964421	1.30173	2.09
160.14	0.148764	-0.091864	2.02326	-0.0443932	0.764702	-0.0805879	0.433864	-0.693864	-0.698132	0.504085	0.307782	-0.108768	0	0.765286	-0.449811	-0.0628222	1.34471	0.631508	0.286543	0	-0.0363191	0.117827	0.0254164	0.530192	-0.728565	-0.0658682	0.357205	2.09	1.70046	0.0496181	0.95654	1.30584	2.09
160.16	0.153495	-0.0919379	2.03767	-0.045398	0.764072	-0.0798503	0.424871	-0.693329	-0.698132	0.495201	0.319214	-0.0991563	0	0.778088	-0.440123	-0.0524601	1.34891	0.629565	0.29031	0	-0.0317612	0.1183	0.029708	0.520078	-0.721022	-0.0719911	0.354448	2.09	1.69742	0.0468294	0.948515	1.30939	2.09
160.18	0.16606	-0.0990861	2.05544	-0.0460766	0.762437	-0.0783691	0.425486	-0.690288	-0.698132	0.487678	0.329721	-0.0954996	0	0.807309	-0.43051	-0.0344764	1.3557	0.626074	0.292332	0	-0.0168638	0.122521	0.0315886	0.511029	-0.713869	-0.0758496	0.351617	2.09	1.69455	0.04392	0.940467	1.31249	2.09
160.2	0.184082	-0.111926	2.07566	-0.0465325	0.760039	-0.0763552	0.433565	-0.68622	-0.698132	0.481666	0.339335	-0.0963372	0	0.848647	-0.420592	-0.0111742	1.36435	0.621468	0.292676	0	0.00595595	0.129041	0.0315511	0.5031	-0.706808	-0.0778287	0.348619	2.09	1.69184	0.0405293	0.93262	1.31551	2.09
160.22	0.195859	-0.121329	2.09392	-0.0472427	0.75824	-0.0748096	0.436104	-0.686313	-0.698131	0.476319	0.348589	-0.0921908	0	0.878988	-0.409526	0.00625417	1.37079	0.617651	0.293643	0	0.0224344	0.131521	0.0327001	0.496482	-0.698763	-0.0795432	0.345074	2.09	1.68944	0.036159	0.925559	1.31895	2.09
160.24	0.194498	-0.122129	2.10784	-0.0484882	0.757824	-0.0742228	0.426144	-0.692242	-0.698131	0.470703	0.357788	-0.0779469	0	0.885415	-0.396746	0.0118211	1.37298	0.615697	0.29653	0	0.0241532	0.126453	0.0366921	0.491324	-0.689213	-0.081822	0.340913	2.09	1.68733	0.0305836	0.919668	1.32304	2.09
160.26	0.177552	-0.112129	2.11664	-0.0503467	0.759114	-0.0747569	0.400303	-0.70401	-0.698131	0.46401	0.366943	-0.0518837	0	0.863232	-0.382497	0.0039178	1.37021	0.61603	0.302001	0	0.00764088	0.113011	0.044157	0.487647	-0.67805	-0.0849828	0.336233	2.09	1.68557	0.0239115	0.914963	1.3277	2.09
160.28	0.147917	-0.0924283	2.12159	-0.0526689	0.761876	-0.0761559	0.359872	-0.719317	-0.698131	0.455712	0.375828	-0.0162949	0	0.817346	-0.367679	-0.0140402	1.3634	0.618223	0.309978	0	-0.0247439	0.0934757	0.0544807	0.4852	-0.66578	-0.0888956	0.331366	2.09	1.6842	0.0168003	0.911006	1.33234	2.09
160.3	0.11726	-0.0696263	2.12738	-0.0549574	0.764936	-0.0774711	0.314576	-0.732132	-0.698132	0.445998	0.383923	0.0199096	0	0.768319	-0.353796	-0.0308344	1.35613	0.620422	0.318992	0	-0.060881	0.0749235	0.0645889	0.483695	-0.653721	-0.0923465	0.326868	2.09	1.68334	0.0101495	0.906993	1.33602	2.09
160.32	0.0931727	-0.0486246	2.13602	-0.0569153	0.767511	-0.0782935	0.271346	-0.739751	-0.698132	0.435406	0.390911	0.0506482	0	0.729104	-0.342369	-0.0405451	1.35058	0.621697	0.32806	0	-0.0920191	0.0615106	0.0733684	0.482399	-0.642542	-0.0946936	0.323219	2.09	1.68261	0.00431015	0.90229	1.33863	2.09
160.34	0.0791173	-0.0323872	2.14809	-0.0584216	0.769192	-0.0784658	0.234894	-0.741646	-0.698132	0.424795	0.396777	0.0728419	0	0.705931	-0.333746	-0.0412677	1.34779	0.621681	0.336526	0	-0.113295	0.0546	0.0804654	0.480756	-0.632467	-0.0956391	0.320641	2.08999	1.68158	-0.000748592	0.896678	1.3404	2.09
160.36	0.0760382	-0.0229673	2.16375	-0.0595028	0.769744	-0.077891	0.208851	-0.738883	-0.698131	0.415339	0.401659	0.0853376	0	0.701465	-0.326787	-0.0331547	1.34812	0.620184	0.343526	0	-0.122078	0.0536652	0.0855732	0.478506	-0.623507	-0.0950998	0.319109	2.08999	1.67994	-0.00521532	0.890204	1.34159	2.09
160.38	0.0838144	-0.0221374	2.18308	-0.0602464	0.76898	-0.0764416	0.196896	-0.73298	-0.698131	0.40849	0.405837	0.0879454	0	0.717086	-0.319379	-0.0171115	1.35173	0.617022	0.347871	0	-0.116657	0.0572737	0.0882557	0.475612	-0.615606	-0.0931179	0.318442	2.08998	1.67744	-0.00930831	0.883091	1.3424	2.09
160.4	0.102394	-0.0314562	2.20607	-0.060684	0.766751	-0.0740453	0.201499	-0.726726	-0.698131	0.406009	0.409614	0.0814358	0	0.753782	-0.309569	0.005947	1.35853	0.612025	0.34826	0	-0.0954858	0.0639566	0.0881748	0.472138	-0.608571	-0.0898598	0.318337	2.08997	1.67408	-0.0132424	0.875522	1.34301	2.09
160.42	0.130197	-0.0505347	2.23225	-0.0608986	0.763138	-0.0707246	0.222842	-0.721216	-0.698131	0.40849	0.413235	0.0676673	0	0.80933	-0.296182	0.0343409	1.36811	0.605252	0.344327	0	-0.0597776	0.0722473	0.0854479	0.468294	-0.602227	-0.0855948	0.318497	2.08996	1.66991	-0.0171646	0.867777	1.34347	2.09
160.44	0.162808	-0.0750825	2.25984	-0.0609966	0.758748	-0.0668828	0.2545	-0.716728	-0.698131	0.414491	0.41672	0.0507627	0	0.874754	-0.280338	0.0647251	1.37904	0.597405	0.337736	0	-0.0159971	0.0807353	0.0814666	0.464493	-0.596119	-0.0808662	0.318575	2.08997	1.66532	-0.0212198	0.860187	1.34381	2.09
160.46	0.190109	-0.0948733	2.28473	-0.0611882	0.755053	-0.0635458	0.279998	-0.71275	-0.698131	0.419686	0.419917	0.0386262	0	0.929469	-0.266055	0.0903279	1.38817	0.590319	0.333092	0	0.0205307	0.0871153	0.0796394	0.461509	-0.589186	-0.0768356	0.318077	2.09002	1.66122	-0.0256555	0.853361	1.34408	2.09
160.48	0.20818	-0.106023	2.3054	-0.0615564	0.752627	-0.0611119	0.292637	-0.708909	-0.698131	0.422172	0.422731	0.0342429	0	0.965771	-0.255068	0.108897	1.39442	0.584708	0.332227	0	0.0438328	0.0906913	0.0812535	0.45945	-0.581122	-0.0735944	0.317112	2.09011	1.65798	-0.0305344	0.847454	1.34436	2.09
160.5	0.217521	-0.10896	2.32224	-0.0620905	0.751419	-0.0595112	0.292594	-0.704888	-0.698131	0.421641	0.425027	0.0370405	0	0.984833	-0.247323	0.12123	1.398	0.580427	0.335014	0	0.0544672	0.0918714	0.0860672	0.457896	-0.572324	-0.0701516	0.316413	2.09028	1.6556	-0.03575	0.842266	1.34468	2.09
160.52	0.22037	-0.105859	2.33629	-0.0627409	0.75112	-0.0585011	0.283011	-0.700548	-0.698131	0.418647	0.426737	0.0450334	0	0.991273	-0.242035	0.129152	1.39964	0.577033	0.340485	0	0.0556349	0.0913953	0.0932653	0.456143	-0.563544	-0.0646349	0.317145	2.09053	1.65391	-0.0411911	0.837519	1.34506	2.09
160.54	0.219152	-0.0991244	2.34863	-0.0634542	0.751389	-0.0578296	0.26757	-0.695896	-0.698131	0.414033	0.427882	0.0561043	0	0.990038	-0.238299	0.134455	1.40008	0.574088	0.34752	0	0.0508946	0.0899552	0.102004	0.453344	-0.555689	-0.0546321	0.32076	2.0908	1.65275	-0.0467685	0.832958	1.34554	2.09
160.56	0.21581	-0.0906932	2.36006	-0.0641893	0.751946	-0.0573032	0.249349	-0.691025	-0.698131	0.408601	0.428548	0.0685659	0	0.985041	-0.235357	0.138492	1.39989	0.571297	0.355178	0	0.043131	0.0880571	0.111633	0.448722	-0.549607	-0.0377797	0.328654	2.09097	1.65196	-0.0524119	0.828386	1.34607	2.09
160.58	0.211649	-0.0818831	2.37109	-0.0649209	0.752601	-0.0567992	0.230499	-0.686069	-0.698132	0.40297	0.42885	0.0812777	0	0.978863	-0.232654	0.142131	1.39945	0.56852	0.362765	0	0.0343176	0.0860007	0.121722	0.441975	-0.545747	-0.0128626	0.3414	2.09079	1.65143	-0.0580657	0.823669	1.34661	2.09
160.6	0.207445	-0.0735041	2.382	-0.0656368	0.753239	-0.0562528	0.212356	-0.681176	-0.698132	0.397553	0.428888	0.0935512	0	0.972985	-0.229785	0.145859	1.39893	0.565739	0.369793	0	0.0256861	0.0838968	0.131976	0.433991	-0.543554	0.0182729	0.357378	2.08984	1.65106	-0.063693	0.818739	1.34707	2.09
160.62	0.203628	-0.0660664	2.39292	-0.0663317	0.753806	-0.0556387	0.195719	-0.676515	-0.698132	0.392593	0.428731	0.104999	0	0.968164	-0.226416	0.149904	1.39837	0.562993	0.375892	0	0.0180116	0.0816789	0.142146	0.42743	-0.540882	0.0487603	0.371573	2.08758	1.65072	-0.0692901	0.813601	1.34737	2.09
160.64	0.200194	-0.0597143	2.40393	-0.0670065	0.754297	-0.054957	0.180654	-0.672257	-0.698132	0.388119	0.428417	0.115591	0	0.964411	-0.222253	0.154325	1.3977	0.560354	0.380865	0	0.01143	0.0792074	0.152089	0.423318	-0.536652	0.0746504	0.381951	2.08351	1.65035	-0.0748535	0.808247	1.34744	2.09
160.66	0.196948	-0.0544184	2.41507	-0.0676669	0.754729	-0.0542166	0.166902	-0.668578	-0.698132	0.384096	0.427972	0.125487	0	0.961407	-0.217049	0.159098	1.39684	0.557907	0.38459	0	0.0057719	0.0763352	0.161722	0.421632	-0.530683	0.0950355	0.388477	2.07749	1.64991	-0.0803946	0.802679	1.34727	2.09
